{  "asset": {    "version": "2.0",    "generator": "THREE.GLTFExporter r167"  },  "scenes": [    {      "name": "AuxScene",      "nodes": [        1      ]    }  ],  "scene": 0,  "nodes": [    {      "mesh": 0    },    {      "children": [        0      ]    }  ],  "bufferViews": [    {      "buffer": 0,      "byteOffset": 0,      "byteLength": 457632,      "target": 34962,      "byteStride": 12    },    {      "buffer": 0,      "byteOffset": 457632,      "byteLength": 457632,      "target": 34962,      "byteStride": 12    }  ],  "buffers": [    {      "byteLength": 915264,      "uri": "data:application/octet-stream;base64,"    }  ],  "accessors": [    {      "bufferView": 0,      "componentType": 5126,      "count": 38136,      "max": [        59.96533203125,        59.98331069946289,        2.2383370399475098      ],      "min": [        -59.965335845947266,        -59.98331069946289,        -2.238337278366089      ],      "type": "VEC3"    },    {      "bufferView": 1,      "componentType": 5126,      "count": 38136,      "max": [        1,        1,        1      ],      "min": [        -1,        -1,        -1      ],      "type": "VEC3"    }  ],  "materials": [    {      "pbrMetallicRoughness": {        "baseColorFactor": [          0.6038273388475408,          0.6038273388475408,          0.6038273388475408,          1        ],        "metallicFactor": 0.5,        "roughnessFactor": 0.5      },      "doubleSided": true,      "name": "mat0"    }  ],  "meshes": [    {      "primitives": [        {          "mode": 4,          "attributes": {            "POSITION": 0,            "NORMAL": 1          },          "material": 0        }      ]    }  ]}