<svg width="24" height="9" viewBox="0 0 24 9" fill="none" xmlns="http://www.w3.org/2000/svg">
<path d="M13.6183 3.9623C15.3536 0.599265 23.9999 1.25468 23.9999 1.25468C23.9999 1.25468 23.1877 7.33585 19.6159 7.28344C18.7387 7.27057 15.5337 7.19292 14.6743 7.36938C13.5525 7.59972 12.5903 8.12136 12.5903 8.12136C12.5903 8.12136 12.5629 6.00764 13.6183 3.9623Z" fill="black"/>
<path d="M14.7828 5.57321L20.4979 3.29578C20.4979 3.29578 20.8846 4.6608 19.8319 5.57321C18.5114 6.71758 14.7828 5.57321 14.7828 5.57321Z" fill="#FF0000"/>
<circle cx="18.2839" cy="4.96308" r="1.65436" fill="black"/>
<circle cx="18.2838" cy="5.04898" r="0.709012" fill="#E40606"/>
<path d="M9.60389 2.79308C9.06848 2.12112 7.81658 1.79848 7.81658 1.79848C7.81658 1.79848 8.15046 2.26752 8.15046 2.60881C8.15046 2.87464 8.02753 3.19612 7.71501 3.19612C7.37853 3.19612 6.9841 2.91497 6.82574 2.67783C6.75364 2.56985 6.57836 2.18588 6.12875 1.81401C5.71077 1.46831 4.99957 1.19899 4.99957 1.19899C4.99957 1.19899 5.38191 1.52774 5.431 1.79848C5.48043 2.07111 5.50234 2.33367 5.22797 2.48361C4.96797 2.62571 4.70526 2.51377 4.44744 2.23446C4.18962 1.95515 3.27065 0.802321 2.05566 0.342568C1.30903 0.0600412 0 0 0 0C0 0 1.36822 0.334676 1.04052 0.663725C0.94857 0.756051 0.735977 0.835008 0.735977 0.835008C0.735977 0.835008 1.24614 0.966835 1.51416 1.29572C1.67655 1.495 1.96202 1.85625 1.75112 2.14105C1.63311 2.3004 1.26893 2.39797 1.26893 2.39797C1.26893 2.39797 1.52718 2.47698 1.67585 2.67783C1.88004 2.95369 2.01961 3.43763 2.06258 3.71694C2.13746 4.20366 2.38499 5.35264 2.98644 6.27368C3.63797 7.2714 4.10303 7.58022 5.3713 7.97101C6.32455 8.26474 7.00335 8.3497 8.01398 8.27181C9.47532 8.15917 11.2583 7.82062 11.2583 7.82062C11.2583 7.82062 10.5492 6.70339 10.4203 6.40259C10.1576 5.78945 10.3344 4.61932 10.3344 4.34001C10.3344 3.86734 10.2576 3.61349 9.60389 2.79308Z" fill="#0221AC"/>
<path fill-rule="evenodd" clip-rule="evenodd" d="M9.51534 4.8231C9.54686 4.70492 9.57341 4.60535 9.5824 4.53343C9.62537 4.18966 9.44943 3.88887 9.27755 3.60956C9.10567 3.33026 8.92972 3.04312 8.92972 3.04312C8.92972 3.04312 8.94929 4.05349 8.52116 4.27485C8.39803 4.33852 8.29234 4.38423 8.18422 4.41402C8.25469 4.59784 8.2933 4.79744 8.2933 5.00606C8.2933 5.91973 7.55262 6.66042 6.63894 6.66042C5.72526 6.66042 4.98458 5.91973 4.98458 5.00606C4.98458 4.22502 5.52581 3.5704 6.25368 3.39679C5.99095 2.96321 5.83722 2.5038 5.83722 2.5038C5.83722 2.5038 5.64331 3.30547 5.20283 3.48015C4.76262 3.65473 4.40249 3.48143 4.00726 3.23039C3.54254 2.93521 2.66528 1.89075 2.66528 1.89075C2.66528 1.89075 2.68264 4.06119 3.50208 5.34987C3.88791 5.95663 4.20632 6.43097 4.59783 6.70343C4.98934 6.9759 5.9062 7.47446 7.00417 7.51987C8.10215 7.56528 9.99062 7.19759 9.99062 7.19759C9.99062 7.19759 9.7704 6.91829 9.5824 6.61749C9.3944 6.3167 9.36755 6.1663 9.36755 5.69363C9.36755 5.37732 9.45159 5.06215 9.51534 4.8231Z" fill="#01559B"/>
<circle cx="6.63894" cy="5.00601" r="0.709012" fill="#03A9FE"/>
</svg>
