<svg width="615" height="139" viewBox="0 0 615 139" fill="none" xmlns="http://www.w3.org/2000/svg">
<rect x="30.7923" y="43.2695" width="65.0509" height="22.8594" rx="11.4297" transform="rotate(59.9772 30.7923 43.2695)" fill="#2EF2E9"/>
<rect x="50.5281" y="17" width="56.9045" height="21.3993" rx="10.6997" transform="rotate(59.9772 50.5281 17)" fill="#FA6663"/>
<circle cx="11" cy="31.2695" r="11" fill="#8A56C2"/>
<circle cx="82" cy="31.2695" r="11" fill="#FBB355"/>
<path d="M100.231 101.55C98.7646 101.55 97.5546 101.073 96.6013 100.12C95.7213 99.1667 95.2813 97.9933 95.2813 96.6C95.2813 96.0133 95.4646 95.28 95.8313 94.4L123.881 28.18C124.468 26.86 125.275 25.7967 126.301 24.99C127.401 24.11 128.721 23.67 130.261 23.67H131.361C132.901 23.67 134.185 24.11 135.211 24.99C136.311 25.7967 137.155 26.86 137.741 28.18L165.791 94.4C166.158 95.28 166.341 96.0133 166.341 96.6C166.341 97.9933 165.865 99.1667 164.911 100.12C164.031 101.073 162.858 101.55 161.391 101.55C160.365 101.55 159.411 101.293 158.531 100.78C157.725 100.193 157.101 99.4233 156.661 98.47L149.511 81.31H112.111L104.961 98.47C104.521 99.4233 103.861 100.193 102.981 100.78C102.175 101.293 101.258 101.55 100.231 101.55ZM115.961 72.18H145.661L130.811 36.43L115.961 72.18ZM187.472 101.55C186.078 101.55 184.905 101.073 183.952 100.12C182.998 99.1667 182.522 97.9933 182.522 96.6V28.73C182.522 27.3367 182.998 26.1633 183.952 25.21C184.905 24.1833 186.078 23.67 187.472 23.67C188.865 23.67 190.038 24.1833 190.992 25.21C192.018 26.1633 192.532 27.3367 192.532 28.73V57.99H234.222V28.73C234.222 27.3367 234.698 26.1633 235.652 25.21C236.605 24.1833 237.778 23.67 239.172 23.67C240.565 23.67 241.738 24.1833 242.692 25.21C243.718 26.1633 244.232 27.3367 244.232 28.73V96.6C244.232 97.9933 243.718 99.1667 242.692 100.12C241.738 101.073 240.565 101.55 239.172 101.55C237.778 101.55 236.605 101.073 235.652 100.12C234.698 99.1667 234.222 97.9933 234.222 96.6V67.34H192.532V96.6C192.532 97.9933 192.018 99.1667 190.992 100.12C190.038 101.073 188.865 101.55 187.472 101.55ZM299.439 102.1C292.105 102.1 285.505 100.523 279.639 97.37C273.845 94.1433 269.262 89.56 265.889 83.62C262.589 77.6067 260.939 70.6033 260.939 62.61C260.939 54.6167 262.589 47.65 265.889 41.71C269.262 35.6967 273.845 31.1133 279.639 27.96C285.505 24.7333 292.105 23.12 299.439 23.12C304.425 23.12 308.862 23.7067 312.749 24.88C316.709 26.0533 320.632 27.74 324.519 29.94C326.132 30.82 326.939 32.2133 326.939 34.12C326.939 35.22 326.535 36.21 325.729 37.09C324.922 37.8967 323.859 38.3 322.539 38.3C321.805 38.3 321.145 38.1533 320.559 37.86C317.332 36.1733 314.179 34.89 311.099 34.01C308.019 33.13 304.462 32.69 300.429 32.69C294.122 32.69 288.732 34.01 284.259 36.65C279.859 39.2167 276.522 42.7733 274.249 47.32C272.049 51.7933 270.949 56.89 270.949 62.61C270.949 68.33 272.049 73.4633 274.249 78.01C276.522 82.4833 279.859 86.04 284.259 88.68C288.732 91.2467 294.122 92.53 300.429 92.53C304.462 92.53 308.019 92.09 311.099 91.21C314.179 90.33 317.332 89.0467 320.559 87.36C321.145 87.0667 321.805 86.92 322.539 86.92C323.859 86.92 324.922 87.3233 325.729 88.13C326.535 88.9367 326.939 89.9267 326.939 91.1C326.939 93.0067 326.132 94.4 324.519 95.28C320.632 97.48 316.709 99.1667 312.749 100.34C308.862 101.513 304.425 102.1 299.439 102.1ZM346.993 101.55C345.6 101.55 344.426 101.073 343.473 100.12C342.52 99.1667 342.043 97.9933 342.043 96.6V28.73C342.043 27.3367 342.52 26.1633 343.473 25.21C344.426 24.1833 345.6 23.67 346.993 23.67C348.386 23.67 349.56 24.1833 350.513 25.21C351.54 26.1633 352.053 27.3367 352.053 28.73V96.6C352.053 97.9933 351.54 99.1667 350.513 100.12C349.56 101.073 348.386 101.55 346.993 101.55ZM378.36 101.55C376.967 101.55 375.794 101.073 374.84 100.12C373.887 99.1667 373.41 97.9933 373.41 96.6V30.93C373.41 28.95 374.107 27.2633 375.5 25.87C376.894 24.4033 378.58 23.67 380.56 23.67H381.99C384.337 23.67 386.354 24.77 388.04 26.97L430.39 88.13V28.73C430.39 27.3367 430.867 26.1633 431.82 25.21C432.774 24.1833 433.947 23.67 435.34 23.67C436.734 23.67 437.907 24.1833 438.86 25.21C439.887 26.1633 440.4 27.3367 440.4 28.73V94.4C440.4 96.38 439.667 98.0667 438.2 99.46C436.807 100.853 435.12 101.55 433.14 101.55H431.82C430.647 101.55 429.547 101.293 428.52 100.78C427.494 100.193 426.65 99.46 425.99 98.58L383.42 37.09V96.6C383.42 97.9933 382.907 99.1667 381.88 100.12C380.927 101.073 379.754 101.55 378.36 101.55ZM466.661 101C465.268 101 464.094 100.523 463.141 99.57C462.188 98.6167 461.711 97.4433 461.711 96.05V29.28C461.711 27.8867 462.188 26.7133 463.141 25.76C464.094 24.7333 465.268 24.22 466.661 24.22H510.771C512.091 24.22 513.191 24.6967 514.071 25.65C515.024 26.53 515.501 27.63 515.501 28.95C515.501 30.27 515.024 31.37 514.071 32.25C513.191 33.13 512.091 33.57 510.771 33.57H471.721V57.88H506.811C508.131 57.88 509.231 58.3567 510.111 59.31C511.064 60.19 511.541 61.29 511.541 62.61C511.541 63.93 511.064 65.03 510.111 65.91C509.231 66.79 508.131 67.23 506.811 67.23H471.721V91.65H510.771C512.091 91.65 513.191 92.1267 514.071 93.08C515.024 93.96 515.501 95.06 515.501 96.38C515.501 97.7 515.024 98.8 514.071 99.68C513.191 100.56 512.091 101 510.771 101H466.661ZM554.628 101.55C553.234 101.55 552.061 101.073 551.108 100.12C550.154 99.1667 549.678 97.9933 549.678 96.6V33.57H527.238C525.918 33.57 524.818 33.13 523.938 32.25C523.058 31.37 522.618 30.27 522.618 28.95C522.618 27.63 523.058 26.53 523.938 25.65C524.818 24.6967 525.918 24.22 527.238 24.22H582.018C583.338 24.22 584.438 24.6967 585.318 25.65C586.271 26.53 586.748 27.63 586.748 28.95C586.748 30.27 586.271 31.37 585.318 32.25C584.438 33.13 583.338 33.57 582.018 33.57H559.688V96.6C559.688 97.9933 559.174 99.1667 558.148 100.12C557.194 101.073 556.021 101.55 554.628 101.55Z" fill="#4B4A4A"/>
<path d="M15.7045 127L11.4245 113.82H12.4045L14.7645 121.52C14.9379 122.067 15.0979 122.573 15.2445 123.04C15.3912 123.507 15.5379 123.973 15.6845 124.44C15.8312 124.893 15.9912 125.387 16.1645 125.92H16.2445C16.4045 125.387 16.5579 124.893 16.7045 124.44C16.8512 123.973 16.9979 123.507 17.1445 123.04C17.2912 122.573 17.4512 122.067 17.6245 121.52L20.1445 113.82H21.0845L16.6845 127H15.7045ZM25.0549 127.24C24.2949 127.24 23.5815 127.047 22.9149 126.66C22.2615 126.26 21.7349 125.687 21.3349 124.94C20.9482 124.18 20.7549 123.273 20.7549 122.22C20.7549 121.153 20.9482 120.24 21.3349 119.48C21.7349 118.72 22.2615 118.147 22.9149 117.76C23.5815 117.36 24.2949 117.16 25.0549 117.16C25.8282 117.16 26.5415 117.36 27.1949 117.76C27.8482 118.147 28.3749 118.72 28.7749 119.48C29.1749 120.24 29.3749 121.153 29.3749 122.22C29.3749 123.273 29.1749 124.18 28.7749 124.94C28.3749 125.687 27.8482 126.26 27.1949 126.66C26.5415 127.047 25.8282 127.24 25.0549 127.24ZM25.0549 126.46C25.7082 126.46 26.2882 126.287 26.7949 125.94C27.3149 125.58 27.7215 125.08 28.0149 124.44C28.3082 123.8 28.4549 123.06 28.4549 122.22C28.4549 121.38 28.3082 120.64 28.0149 120C27.7215 119.347 27.3149 118.84 26.7949 118.48C26.2882 118.12 25.7082 117.94 25.0549 117.94C24.4149 117.94 23.8415 118.12 23.3349 118.48C22.8282 118.84 22.4215 119.347 22.1149 120C21.8215 120.64 21.6749 121.38 21.6749 122.22C21.6749 123.06 21.8215 123.8 22.1149 124.44C22.4215 125.08 22.8282 125.58 23.3349 125.94C23.8415 126.287 24.4149 126.46 25.0549 126.46ZM31.058 127V117.4H31.938V127H31.058ZM31.478 115.08C31.2646 115.08 31.0846 115.007 30.938 114.86C30.7913 114.7 30.718 114.5 30.718 114.26C30.718 114.02 30.7913 113.833 30.938 113.7C31.0846 113.553 31.2646 113.48 31.478 113.48C31.7046 113.48 31.8846 113.553 32.018 113.7C32.1646 113.833 32.238 114.02 32.238 114.26C32.238 114.5 32.1646 114.7 32.018 114.86C31.8846 115.007 31.7046 115.08 31.478 115.08ZM37.9883 127.24C37.1616 127.24 36.415 127.047 35.7483 126.66C35.095 126.26 34.575 125.687 34.1883 124.94C33.815 124.18 33.6283 123.273 33.6283 122.22C33.6283 121.153 33.8283 120.24 34.2283 119.48C34.6416 118.72 35.1816 118.147 35.8483 117.76C36.515 117.36 37.235 117.16 38.0083 117.16C38.675 117.16 39.2283 117.273 39.6683 117.5C40.1083 117.713 40.495 117.993 40.8283 118.34L40.3483 118.88C40.0683 118.587 39.735 118.36 39.3483 118.2C38.9616 118.027 38.5216 117.94 38.0283 117.94C37.375 117.94 36.7883 118.12 36.2683 118.48C35.7483 118.84 35.3283 119.34 35.0083 119.98C34.7016 120.62 34.5483 121.367 34.5483 122.22C34.5483 123.06 34.6883 123.8 34.9683 124.44C35.2616 125.08 35.6683 125.58 36.1883 125.94C36.7083 126.287 37.3216 126.46 38.0283 126.46C38.5483 126.46 39.0283 126.367 39.4683 126.18C39.9083 125.98 40.2816 125.72 40.5883 125.4L41.0483 125.94C40.6483 126.327 40.195 126.64 39.6883 126.88C39.1816 127.12 38.615 127.24 37.9883 127.24ZM45.5206 127.24C44.694 127.24 43.9473 127.04 43.2806 126.64C42.614 126.24 42.0806 125.667 41.6806 124.92C41.2806 124.16 41.0806 123.26 41.0806 122.22C41.0806 121.167 41.2806 120.267 41.6806 119.52C42.0806 118.76 42.594 118.18 43.2206 117.78C43.8606 117.367 44.5406 117.16 45.2606 117.16C46.0206 117.16 46.674 117.333 47.2206 117.68C47.7806 118.027 48.2073 118.533 48.5006 119.2C48.794 119.853 48.9406 120.653 48.9406 121.6C48.9406 121.707 48.934 121.827 48.9206 121.96C48.9206 122.08 48.9073 122.207 48.8806 122.34H41.6206V121.58H48.1006C48.1006 120.353 47.8473 119.44 47.3406 118.84C46.834 118.227 46.1473 117.92 45.2806 117.92C44.7473 117.92 44.2273 118.073 43.7206 118.38C43.214 118.687 42.794 119.16 42.4606 119.8C42.1406 120.427 41.9806 121.22 41.9806 122.18C41.9806 123.06 42.1406 123.827 42.4606 124.48C42.7806 125.12 43.214 125.613 43.7606 125.96C44.3073 126.293 44.9206 126.46 45.6006 126.46C46.1206 126.46 46.594 126.393 47.0206 126.26C47.4606 126.113 47.8473 125.92 48.1806 125.68L48.5406 126.3C48.1673 126.553 47.7473 126.773 47.2806 126.96C46.814 127.147 46.2273 127.24 45.5206 127.24ZM51.4725 127L56.1125 113.82H57.0325L61.6725 127H60.7125L58.0725 119.24C57.8058 118.453 57.5525 117.7 57.3125 116.98C57.0725 116.247 56.8392 115.48 56.6125 114.68H56.5325C56.3058 115.48 56.0725 116.247 55.8325 116.98C55.5925 117.7 55.3392 118.453 55.0725 119.24L52.3925 127H51.4725ZM53.5925 122.48V121.7H59.4925V122.48H53.5925ZM66.0399 127.24C65.2132 127.24 64.4665 127.047 63.7999 126.66C63.1465 126.26 62.6265 125.687 62.2399 124.94C61.8665 124.18 61.6799 123.273 61.6799 122.22C61.6799 121.153 61.8799 120.24 62.2799 119.48C62.6932 118.72 63.2332 118.147 63.8999 117.76C64.5665 117.36 65.2865 117.16 66.0599 117.16C66.7265 117.16 67.2799 117.273 67.7199 117.5C68.1599 117.713 68.5465 117.993 68.8799 118.34L68.3999 118.88C68.1199 118.587 67.7865 118.36 67.3999 118.2C67.0132 118.027 66.5732 117.94 66.0799 117.94C65.4265 117.94 64.8399 118.12 64.3199 118.48C63.7999 118.84 63.3799 119.34 63.0599 119.98C62.7532 120.62 62.5999 121.367 62.5999 122.22C62.5999 123.06 62.7399 123.8 63.0199 124.44C63.3132 125.08 63.7199 125.58 64.2399 125.94C64.7599 126.287 65.3732 126.46 66.0799 126.46C66.5999 126.46 67.0799 126.367 67.5199 126.18C67.9599 125.98 68.3332 125.72 68.6399 125.4L69.0999 125.94C68.6999 126.327 68.2465 126.64 67.7399 126.88C67.2332 127.12 66.6665 127.24 66.0399 127.24ZM72.6889 127.16C71.7556 127.16 71.1223 126.893 70.7889 126.36C70.4556 125.827 70.2889 125.133 70.2889 124.28V118.16H68.7889V117.48L70.3089 117.4L70.4289 114.22H71.1889V117.4H73.9689V118.16H71.1889V124.34C71.1889 124.953 71.2956 125.453 71.5089 125.84C71.7223 126.213 72.1556 126.4 72.8089 126.4C72.9956 126.4 73.1823 126.38 73.3689 126.34C73.5689 126.287 73.7823 126.207 74.0089 126.1L74.2889 126.72C74.0356 126.853 73.7689 126.96 73.4889 127.04C73.2089 127.12 72.9423 127.16 72.6889 127.16ZM75.0994 127V117.4H75.9794V127H75.0994ZM75.5194 115.08C75.3061 115.08 75.1261 115.007 74.9794 114.86C74.8327 114.7 74.7594 114.5 74.7594 114.26C74.7594 114.02 74.8327 113.833 74.9794 113.7C75.1261 113.553 75.3061 113.48 75.5194 113.48C75.7461 113.48 75.9261 113.553 76.0594 113.7C76.2061 113.833 76.2794 114.02 76.2794 114.26C76.2794 114.5 76.2061 114.7 76.0594 114.86C75.9261 115.007 75.7461 115.08 75.5194 115.08ZM80.4697 127L76.8697 117.4H77.8297L79.9897 123.42C80.1364 123.873 80.2964 124.34 80.4697 124.82C80.643 125.287 80.803 125.74 80.9497 126.18H81.0297C81.1897 125.74 81.3497 125.287 81.5097 124.82C81.683 124.34 81.8497 123.873 82.0097 123.42L84.1697 117.4H85.0697L81.5097 127H80.4697ZM87.651 127.24C87.1443 127.24 86.6776 127.147 86.251 126.96C85.8376 126.773 85.5043 126.487 85.251 126.1C84.9976 125.7 84.871 125.207 84.871 124.62C84.871 123.54 85.371 122.727 86.371 122.18C87.371 121.62 88.9376 121.22 91.071 120.98C91.071 120.487 91.011 120.007 90.891 119.54C90.7843 119.073 90.5643 118.693 90.231 118.4C89.911 118.093 89.431 117.94 88.791 117.94C88.151 117.94 87.5643 118.067 87.031 118.32C86.4976 118.56 86.0643 118.793 85.731 119.02L85.331 118.4C85.5576 118.227 85.851 118.047 86.211 117.86C86.571 117.66 86.9776 117.493 87.431 117.36C87.8976 117.227 88.391 117.16 88.911 117.16C89.6576 117.16 90.251 117.327 90.691 117.66C91.1443 117.993 91.4643 118.44 91.651 119C91.851 119.56 91.951 120.18 91.951 120.86V127H91.191L91.111 125.76H91.051C90.571 126.147 90.0376 126.493 89.451 126.8C88.8776 127.093 88.2776 127.24 87.651 127.24ZM87.811 126.46C88.3576 126.46 88.8843 126.333 89.391 126.08C89.911 125.813 90.471 125.427 91.071 124.92V121.68C89.751 121.827 88.7043 122.033 87.931 122.3C87.1576 122.553 86.6043 122.867 86.271 123.24C85.9376 123.613 85.771 124.053 85.771 124.56C85.771 125.24 85.971 125.727 86.371 126.02C86.7843 126.313 87.2643 126.46 87.811 126.46ZM96.5803 127.16C95.647 127.16 95.0137 126.893 94.6803 126.36C94.347 125.827 94.1803 125.133 94.1803 124.28V118.16H92.6803V117.48L94.2003 117.4L94.3203 114.22H95.0803V117.4H97.8603V118.16H95.0803V124.34C95.0803 124.953 95.187 125.453 95.4003 125.84C95.6137 126.213 96.047 126.4 96.7003 126.4C96.887 126.4 97.0737 126.38 97.2603 126.34C97.4603 126.287 97.6737 126.207 97.9003 126.1L98.1803 126.72C97.927 126.853 97.6603 126.96 97.3803 127.04C97.1003 127.12 96.8337 127.16 96.5803 127.16ZM102.416 127.24C101.589 127.24 100.843 127.04 100.176 126.64C99.5093 126.24 98.976 125.667 98.576 124.92C98.176 124.16 97.976 123.26 97.976 122.22C97.976 121.167 98.176 120.267 98.576 119.52C98.976 118.76 99.4893 118.18 100.116 117.78C100.756 117.367 101.436 117.16 102.156 117.16C102.916 117.16 103.569 117.333 104.116 117.68C104.676 118.027 105.103 118.533 105.396 119.2C105.689 119.853 105.836 120.653 105.836 121.6C105.836 121.707 105.829 121.827 105.816 121.96C105.816 122.08 105.803 122.207 105.776 122.34H98.516V121.58H104.996C104.996 120.353 104.743 119.44 104.236 118.84C103.729 118.227 103.043 117.92 102.176 117.92C101.643 117.92 101.123 118.073 100.616 118.38C100.109 118.687 99.6893 119.16 99.356 119.8C99.036 120.427 98.876 121.22 98.876 122.18C98.876 123.06 99.036 123.827 99.356 124.48C99.676 125.12 100.109 125.613 100.656 125.96C101.203 126.293 101.816 126.46 102.496 126.46C103.016 126.46 103.489 126.393 103.916 126.26C104.356 126.113 104.743 125.92 105.076 125.68L105.436 126.3C105.063 126.553 104.643 126.773 104.176 126.96C103.709 127.147 103.123 127.24 102.416 127.24ZM110.424 127.24C109.224 127.24 108.257 126.807 107.524 125.94C106.804 125.073 106.444 123.833 106.444 122.22C106.444 121.18 106.637 120.287 107.024 119.54C107.424 118.78 107.944 118.193 108.584 117.78C109.237 117.367 109.944 117.16 110.704 117.16C111.291 117.16 111.804 117.26 112.244 117.46C112.684 117.66 113.137 117.953 113.604 118.34L113.564 116.58V112.62H114.444V127H113.684L113.604 125.76H113.544C113.157 126.147 112.697 126.493 112.164 126.8C111.644 127.093 111.064 127.24 110.424 127.24ZM110.544 126.46C111.077 126.46 111.584 126.327 112.064 126.06C112.557 125.78 113.057 125.387 113.564 124.88V119.18C113.057 118.727 112.584 118.407 112.144 118.22C111.704 118.033 111.244 117.94 110.764 117.94C110.124 117.94 109.551 118.127 109.044 118.5C108.537 118.873 108.131 119.387 107.824 120.04C107.531 120.68 107.384 121.407 107.384 122.22C107.384 123.487 107.657 124.513 108.204 125.3C108.751 126.073 109.531 126.46 110.544 126.46ZM119.827 127V113.82H120.747V119.6H127.807V113.82H128.727V127H127.807V120.4H120.747V127H119.827ZM134.06 127.24C133.074 127.24 132.34 126.94 131.86 126.34C131.394 125.727 131.16 124.8 131.16 123.56V117.4H132.04V123.44C132.04 124.453 132.214 125.207 132.56 125.7C132.907 126.193 133.46 126.44 134.22 126.44C134.794 126.44 135.314 126.287 135.78 125.98C136.247 125.66 136.76 125.16 137.32 124.48V117.4H138.2V127H137.46L137.36 125.4H137.32C136.854 125.947 136.36 126.393 135.84 126.74C135.32 127.073 134.727 127.24 134.06 127.24ZM140.686 127V117.4H141.446L141.526 118.88H141.586C142.013 118.387 142.486 117.98 143.006 117.66C143.539 117.327 144.073 117.16 144.606 117.16C145.393 117.16 145.986 117.34 146.386 117.7C146.799 118.047 147.093 118.52 147.266 119.12C147.813 118.507 148.353 118.027 148.886 117.68C149.433 117.333 149.979 117.16 150.526 117.16C151.486 117.16 152.206 117.467 152.686 118.08C153.166 118.68 153.406 119.6 153.406 120.84V127H152.506V120.96C152.506 119.933 152.333 119.18 151.986 118.7C151.653 118.207 151.113 117.96 150.366 117.96C149.913 117.96 149.453 118.113 148.986 118.42C148.519 118.713 148.019 119.16 147.486 119.76V127H146.606V120.96C146.606 119.933 146.433 119.18 146.086 118.7C145.739 118.207 145.193 117.96 144.446 117.96C143.593 117.96 142.633 118.56 141.566 119.76V127H140.686ZM157.817 127.24C157.31 127.24 156.843 127.147 156.417 126.96C156.003 126.773 155.67 126.487 155.417 126.1C155.163 125.7 155.037 125.207 155.037 124.62C155.037 123.54 155.537 122.727 156.537 122.18C157.537 121.62 159.103 121.22 161.237 120.98C161.237 120.487 161.177 120.007 161.057 119.54C160.95 119.073 160.73 118.693 160.397 118.4C160.077 118.093 159.597 117.94 158.957 117.94C158.317 117.94 157.73 118.067 157.197 118.32C156.663 118.56 156.23 118.793 155.897 119.02L155.497 118.4C155.723 118.227 156.017 118.047 156.377 117.86C156.737 117.66 157.143 117.493 157.597 117.36C158.063 117.227 158.557 117.16 159.077 117.16C159.823 117.16 160.417 117.327 160.857 117.66C161.31 117.993 161.63 118.44 161.817 119C162.017 119.56 162.117 120.18 162.117 120.86V127H161.357L161.277 125.76H161.217C160.737 126.147 160.203 126.493 159.617 126.8C159.043 127.093 158.443 127.24 157.817 127.24ZM157.977 126.46C158.523 126.46 159.05 126.333 159.557 126.08C160.077 125.813 160.637 125.427 161.237 124.92V121.68C159.917 121.827 158.87 122.033 158.097 122.3C157.323 122.553 156.77 122.867 156.437 123.24C156.103 123.613 155.937 124.053 155.937 124.56C155.937 125.24 156.137 125.727 156.537 126.02C156.95 126.313 157.43 126.46 157.977 126.46ZM164.341 127V117.4H165.101L165.181 118.88H165.241C165.734 118.387 166.241 117.98 166.761 117.66C167.294 117.327 167.887 117.16 168.541 117.16C169.541 117.16 170.274 117.467 170.741 118.08C171.207 118.68 171.441 119.6 171.441 120.84V127H170.561V120.96C170.561 119.933 170.387 119.18 170.041 118.7C169.707 118.207 169.147 117.96 168.361 117.96C167.787 117.96 167.267 118.113 166.801 118.42C166.347 118.713 165.821 119.16 165.221 119.76V127H164.341ZM181.369 127.24C180.289 127.24 179.329 126.96 178.489 126.4C177.663 125.84 177.016 125.047 176.549 124.02C176.083 122.993 175.849 121.78 175.849 120.38C175.849 119.34 175.983 118.4 176.249 117.56C176.516 116.72 176.896 116.007 177.389 115.42C177.896 114.82 178.489 114.367 179.169 114.06C179.863 113.74 180.629 113.58 181.469 113.58C182.229 113.58 182.903 113.733 183.489 114.04C184.089 114.347 184.563 114.72 184.909 115.16L184.369 115.72C184.009 115.307 183.583 114.987 183.089 114.76C182.609 114.533 182.076 114.42 181.489 114.42C180.529 114.42 179.696 114.667 178.989 115.16C178.296 115.64 177.756 116.327 177.369 117.22C176.996 118.1 176.809 119.153 176.809 120.38C176.809 121.593 176.996 122.653 177.369 123.56C177.743 124.467 178.276 125.167 178.969 125.66C179.663 126.153 180.483 126.4 181.429 126.4C182.109 126.4 182.716 126.273 183.249 126.02C183.783 125.767 184.289 125.373 184.769 124.84L185.269 125.36C184.776 125.933 184.216 126.393 183.589 126.74C182.976 127.073 182.236 127.24 181.369 127.24ZM190.178 127.24C189.418 127.24 188.705 127.047 188.038 126.66C187.385 126.26 186.858 125.687 186.458 124.94C186.072 124.18 185.878 123.273 185.878 122.22C185.878 121.153 186.072 120.24 186.458 119.48C186.858 118.72 187.385 118.147 188.038 117.76C188.705 117.36 189.418 117.16 190.178 117.16C190.952 117.16 191.665 117.36 192.318 117.76C192.972 118.147 193.498 118.72 193.898 119.48C194.298 120.24 194.498 121.153 194.498 122.22C194.498 123.273 194.298 124.18 193.898 124.94C193.498 125.687 192.972 126.26 192.318 126.66C191.665 127.047 190.952 127.24 190.178 127.24ZM190.178 126.46C190.832 126.46 191.412 126.287 191.918 125.94C192.438 125.58 192.845 125.08 193.138 124.44C193.432 123.8 193.578 123.06 193.578 122.22C193.578 121.38 193.432 120.64 193.138 120C192.845 119.347 192.438 118.84 191.918 118.48C191.412 118.12 190.832 117.94 190.178 117.94C189.538 117.94 188.965 118.12 188.458 118.48C187.952 118.84 187.545 119.347 187.238 120C186.945 120.64 186.798 121.38 186.798 122.22C186.798 123.06 186.945 123.8 187.238 124.44C187.545 125.08 187.952 125.58 188.458 125.94C188.965 126.287 189.538 126.46 190.178 126.46ZM196.181 127V117.4H196.941L197.021 118.88H197.081C197.508 118.387 197.981 117.98 198.501 117.66C199.035 117.327 199.568 117.16 200.101 117.16C200.888 117.16 201.481 117.34 201.881 117.7C202.295 118.047 202.588 118.52 202.761 119.12C203.308 118.507 203.848 118.027 204.381 117.68C204.928 117.333 205.475 117.16 206.021 117.16C206.981 117.16 207.701 117.467 208.181 118.08C208.661 118.68 208.901 119.6 208.901 120.84V127H208.001V120.96C208.001 119.933 207.828 119.18 207.481 118.7C207.148 118.207 206.608 117.96 205.861 117.96C205.408 117.96 204.948 118.113 204.481 118.42C204.015 118.713 203.515 119.16 202.981 119.76V127H202.101V120.96C202.101 119.933 201.928 119.18 201.581 118.7C201.235 118.207 200.688 117.96 199.941 117.96C199.088 117.96 198.128 118.56 197.061 119.76V127H196.181ZM211.212 131.34V117.4H211.972L212.052 118.6H212.112C212.579 118.227 213.085 117.893 213.632 117.6C214.192 117.307 214.772 117.16 215.372 117.16C216.225 117.16 216.932 117.36 217.492 117.76C218.065 118.16 218.492 118.733 218.772 119.48C219.065 120.213 219.212 121.073 219.212 122.06C219.212 123.14 219.012 124.067 218.612 124.84C218.225 125.613 217.712 126.207 217.072 126.62C216.432 127.033 215.732 127.24 214.972 127.24C214.519 127.24 214.045 127.14 213.552 126.94C213.072 126.727 212.585 126.433 212.092 126.06V127.84V131.34H211.212ZM214.932 126.46C215.585 126.46 216.159 126.273 216.652 125.9C217.159 125.527 217.552 125.013 217.832 124.36C218.125 123.693 218.272 122.927 218.272 122.06C218.272 121.273 218.172 120.573 217.972 119.96C217.772 119.333 217.445 118.84 216.992 118.48C216.552 118.12 215.965 117.94 215.232 117.94C214.752 117.94 214.252 118.073 213.732 118.34C213.225 118.607 212.679 119 212.092 119.52V125.22C212.639 125.673 213.159 125.993 213.652 126.18C214.145 126.367 214.572 126.46 214.932 126.46ZM223.651 127.24C222.664 127.24 221.931 126.94 221.451 126.34C220.984 125.727 220.751 124.8 220.751 123.56V117.4H221.631V123.44C221.631 124.453 221.804 125.207 222.151 125.7C222.497 126.193 223.051 126.44 223.811 126.44C224.384 126.44 224.904 126.287 225.371 125.98C225.837 125.66 226.351 125.16 226.911 124.48V117.4H227.791V127H227.051L226.951 125.4H226.911C226.444 125.947 225.951 126.393 225.431 126.74C224.911 127.073 224.317 127.24 223.651 127.24ZM232.897 127.16C231.963 127.16 231.33 126.893 230.997 126.36C230.663 125.827 230.497 125.133 230.497 124.28V118.16H228.997V117.48L230.517 117.4L230.637 114.22H231.397V117.4H234.177V118.16H231.397V124.34C231.397 124.953 231.503 125.453 231.717 125.84C231.93 126.213 232.363 126.4 233.017 126.4C233.203 126.4 233.39 126.38 233.577 126.34C233.777 126.287 233.99 126.207 234.217 126.1L234.497 126.72C234.243 126.853 233.977 126.96 233.697 127.04C233.417 127.12 233.15 127.16 232.897 127.16ZM238.732 127.24C237.906 127.24 237.159 127.04 236.492 126.64C235.826 126.24 235.292 125.667 234.892 124.92C234.492 124.16 234.292 123.26 234.292 122.22C234.292 121.167 234.492 120.267 234.892 119.52C235.292 118.76 235.806 118.18 236.432 117.78C237.072 117.367 237.752 117.16 238.472 117.16C239.232 117.16 239.886 117.333 240.432 117.68C240.992 118.027 241.419 118.533 241.712 119.2C242.006 119.853 242.152 120.653 242.152 121.6C242.152 121.707 242.146 121.827 242.132 121.96C242.132 122.08 242.119 122.207 242.092 122.34H234.832V121.58H241.312C241.312 120.353 241.059 119.44 240.552 118.84C240.046 118.227 239.359 117.92 238.492 117.92C237.959 117.92 237.439 118.073 236.932 118.38C236.426 118.687 236.006 119.16 235.672 119.8C235.352 120.427 235.192 121.22 235.192 122.18C235.192 123.06 235.352 123.827 235.672 124.48C235.992 125.12 236.426 125.613 236.972 125.96C237.519 126.293 238.132 126.46 238.812 126.46C239.332 126.46 239.806 126.393 240.232 126.26C240.672 126.113 241.059 125.92 241.392 125.68L241.752 126.3C241.379 126.553 240.959 126.773 240.492 126.96C240.026 127.147 239.439 127.24 238.732 127.24ZM243.56 127V117.4H244.32L244.4 119.18H244.46C244.767 118.593 245.147 118.113 245.6 117.74C246.067 117.353 246.594 117.16 247.18 117.16C247.354 117.16 247.514 117.173 247.66 117.2C247.82 117.227 247.98 117.28 248.14 117.36L247.9 118.12C247.767 118.08 247.64 118.053 247.52 118.04C247.414 118.013 247.26 118 247.06 118C246.634 118 246.18 118.187 245.7 118.56C245.234 118.92 244.814 119.553 244.44 120.46V127H243.56ZM251.612 127V113.82H252.532V127H251.612ZM255.117 127V117.4H255.877L255.957 118.88H256.017C256.51 118.387 257.017 117.98 257.537 117.66C258.07 117.327 258.663 117.16 259.317 117.16C260.317 117.16 261.05 117.467 261.517 118.08C261.983 118.68 262.217 119.6 262.217 120.84V127H261.337V120.96C261.337 119.933 261.163 119.18 260.817 118.7C260.483 118.207 259.923 117.96 259.137 117.96C258.563 117.96 258.043 118.113 257.577 118.42C257.123 118.713 256.597 119.16 255.997 119.76V127H255.117ZM267.181 127.16C266.248 127.16 265.614 126.893 265.281 126.36C264.948 125.827 264.781 125.133 264.781 124.28V118.16H263.281V117.48L264.801 117.4L264.921 114.22H265.681V117.4H268.461V118.16H265.681V124.34C265.681 124.953 265.788 125.453 266.001 125.84C266.214 126.213 266.648 126.4 267.301 126.4C267.488 126.4 267.674 126.38 267.861 126.34C268.061 126.287 268.274 126.207 268.501 126.1L268.781 126.72C268.528 126.853 268.261 126.96 267.981 127.04C267.701 127.12 267.434 127.16 267.181 127.16ZM273.017 127.24C272.19 127.24 271.443 127.04 270.777 126.64C270.11 126.24 269.577 125.667 269.177 124.92C268.777 124.16 268.577 123.26 268.577 122.22C268.577 121.167 268.777 120.267 269.177 119.52C269.577 118.76 270.09 118.18 270.717 117.78C271.357 117.367 272.037 117.16 272.757 117.16C273.517 117.16 274.17 117.333 274.717 117.68C275.277 118.027 275.703 118.533 275.997 119.2C276.29 119.853 276.437 120.653 276.437 121.6C276.437 121.707 276.43 121.827 276.417 121.96C276.417 122.08 276.403 122.207 276.377 122.34H269.117V121.58H275.597C275.597 120.353 275.343 119.44 274.837 118.84C274.33 118.227 273.643 117.92 272.777 117.92C272.243 117.92 271.723 118.073 271.217 118.38C270.71 118.687 270.29 119.16 269.957 119.8C269.637 120.427 269.477 121.22 269.477 122.18C269.477 123.06 269.637 123.827 269.957 124.48C270.277 125.12 270.71 125.613 271.257 125.96C271.803 126.293 272.417 126.46 273.097 126.46C273.617 126.46 274.09 126.393 274.517 126.26C274.957 126.113 275.343 125.92 275.677 125.68L276.037 126.3C275.663 126.553 275.243 126.773 274.777 126.96C274.31 127.147 273.723 127.24 273.017 127.24ZM277.845 127V117.4H278.605L278.685 119.18H278.745C279.051 118.593 279.431 118.113 279.885 117.74C280.351 117.353 280.878 117.16 281.465 117.16C281.638 117.16 281.798 117.173 281.945 117.2C282.105 117.227 282.265 117.28 282.425 117.36L282.185 118.12C282.051 118.08 281.925 118.053 281.805 118.04C281.698 118.013 281.545 118 281.345 118C280.918 118 280.465 118.187 279.985 118.56C279.518 118.92 279.098 119.553 278.725 120.46V127H277.845ZM284.682 127.24C284.176 127.24 283.709 127.147 283.282 126.96C282.869 126.773 282.536 126.487 282.282 126.1C282.029 125.7 281.902 125.207 281.902 124.62C281.902 123.54 282.402 122.727 283.402 122.18C284.402 121.62 285.969 121.22 288.102 120.98C288.102 120.487 288.042 120.007 287.922 119.54C287.816 119.073 287.596 118.693 287.262 118.4C286.942 118.093 286.462 117.94 285.822 117.94C285.182 117.94 284.596 118.067 284.062 118.32C283.529 118.56 283.096 118.793 282.762 119.02L282.362 118.4C282.589 118.227 282.882 118.047 283.242 117.86C283.602 117.66 284.009 117.493 284.462 117.36C284.929 117.227 285.422 117.16 285.942 117.16C286.689 117.16 287.282 117.327 287.722 117.66C288.176 117.993 288.496 118.44 288.682 119C288.882 119.56 288.982 120.18 288.982 120.86V127H288.222L288.142 125.76H288.082C287.602 126.147 287.069 126.493 286.482 126.8C285.909 127.093 285.309 127.24 284.682 127.24ZM284.842 126.46C285.389 126.46 285.916 126.333 286.422 126.08C286.942 125.813 287.502 125.427 288.102 124.92V121.68C286.782 121.827 285.736 122.033 284.962 122.3C284.189 122.553 283.636 122.867 283.302 123.24C282.969 123.613 282.802 124.053 282.802 124.56C282.802 125.24 283.002 125.727 283.402 126.02C283.816 126.313 284.296 126.46 284.842 126.46ZM294.766 127.24C293.94 127.24 293.193 127.047 292.526 126.66C291.873 126.26 291.353 125.687 290.966 124.94C290.593 124.18 290.406 123.273 290.406 122.22C290.406 121.153 290.606 120.24 291.006 119.48C291.42 118.72 291.96 118.147 292.626 117.76C293.293 117.36 294.013 117.16 294.786 117.16C295.453 117.16 296.006 117.273 296.446 117.5C296.886 117.713 297.273 117.993 297.606 118.34L297.126 118.88C296.846 118.587 296.513 118.36 296.126 118.2C295.74 118.027 295.3 117.94 294.806 117.94C294.153 117.94 293.566 118.12 293.046 118.48C292.526 118.84 292.106 119.34 291.786 119.98C291.48 120.62 291.326 121.367 291.326 122.22C291.326 123.06 291.466 123.8 291.746 124.44C292.04 125.08 292.446 125.58 292.966 125.94C293.486 126.287 294.1 126.46 294.806 126.46C295.326 126.46 295.806 126.367 296.246 126.18C296.686 125.98 297.06 125.72 297.366 125.4L297.826 125.94C297.426 126.327 296.973 126.64 296.466 126.88C295.96 127.12 295.393 127.24 294.766 127.24ZM301.415 127.16C300.482 127.16 299.849 126.893 299.515 126.36C299.182 125.827 299.015 125.133 299.015 124.28V118.16H297.515V117.48L299.035 117.4L299.155 114.22H299.915V117.4H302.695V118.16H299.915V124.34C299.915 124.953 300.022 125.453 300.235 125.84C300.449 126.213 300.882 126.4 301.535 126.4C301.722 126.4 301.909 126.38 302.095 126.34C302.295 126.287 302.509 126.207 302.735 126.1L303.015 126.72C302.762 126.853 302.495 126.96 302.215 127.04C301.935 127.12 301.669 127.16 301.415 127.16ZM303.826 127V117.4H304.706V127H303.826ZM304.246 115.08C304.033 115.08 303.853 115.007 303.706 114.86C303.559 114.7 303.486 114.5 303.486 114.26C303.486 114.02 303.559 113.833 303.706 113.7C303.853 113.553 304.033 113.48 304.246 113.48C304.473 113.48 304.653 113.553 304.786 113.7C304.933 113.833 305.006 114.02 305.006 114.26C305.006 114.5 304.933 114.7 304.786 114.86C304.653 115.007 304.473 115.08 304.246 115.08ZM310.696 127.24C309.936 127.24 309.223 127.047 308.556 126.66C307.903 126.26 307.376 125.687 306.976 124.94C306.59 124.18 306.396 123.273 306.396 122.22C306.396 121.153 306.59 120.24 306.976 119.48C307.376 118.72 307.903 118.147 308.556 117.76C309.223 117.36 309.936 117.16 310.696 117.16C311.47 117.16 312.183 117.36 312.836 117.76C313.49 118.147 314.016 118.72 314.416 119.48C314.816 120.24 315.016 121.153 315.016 122.22C315.016 123.273 314.816 124.18 314.416 124.94C314.016 125.687 313.49 126.26 312.836 126.66C312.183 127.047 311.47 127.24 310.696 127.24ZM310.696 126.46C311.35 126.46 311.93 126.287 312.436 125.94C312.956 125.58 313.363 125.08 313.656 124.44C313.95 123.8 314.096 123.06 314.096 122.22C314.096 121.38 313.95 120.64 313.656 120C313.363 119.347 312.956 118.84 312.436 118.48C311.93 118.12 311.35 117.94 310.696 117.94C310.056 117.94 309.483 118.12 308.976 118.48C308.47 118.84 308.063 119.347 307.756 120C307.463 120.64 307.316 121.38 307.316 122.22C307.316 123.06 307.463 123.8 307.756 124.44C308.063 125.08 308.47 125.58 308.976 125.94C309.483 126.287 310.056 126.46 310.696 126.46ZM316.699 127V117.4H317.459L317.539 118.88H317.599C318.093 118.387 318.599 117.98 319.119 117.66C319.653 117.327 320.246 117.16 320.899 117.16C321.899 117.16 322.633 117.467 323.099 118.08C323.566 118.68 323.799 119.6 323.799 120.84V127H322.919V120.96C322.919 119.933 322.746 119.18 322.399 118.7C322.066 118.207 321.506 117.96 320.719 117.96C320.146 117.96 319.626 118.113 319.159 118.42C318.706 118.713 318.179 119.16 317.579 119.76V127H316.699ZM329.284 131.62C328.471 131.62 327.771 131.507 327.184 131.28C326.597 131.067 326.144 130.76 325.824 130.36C325.504 129.973 325.344 129.507 325.344 128.96C325.344 128.533 325.471 128.12 325.724 127.72C325.977 127.32 326.324 126.96 326.764 126.64V126.56C326.524 126.413 326.324 126.213 326.164 125.96C326.004 125.707 325.924 125.393 325.924 125.02C325.924 124.593 326.044 124.233 326.284 123.94C326.524 123.633 326.751 123.407 326.964 123.26V123.18C326.671 122.913 326.397 122.553 326.144 122.1C325.891 121.633 325.764 121.113 325.764 120.54C325.764 119.887 325.911 119.307 326.204 118.8C326.511 118.28 326.917 117.88 327.424 117.6C327.944 117.307 328.517 117.16 329.144 117.16C329.411 117.16 329.651 117.187 329.864 117.24C330.091 117.28 330.271 117.333 330.404 117.4H333.664V118.14H331.424V118.22C331.717 118.46 331.964 118.773 332.164 119.16C332.377 119.547 332.484 120.013 332.484 120.56C332.484 121.213 332.331 121.793 332.024 122.3C331.731 122.807 331.331 123.207 330.824 123.5C330.331 123.793 329.771 123.94 329.144 123.94C328.864 123.94 328.584 123.907 328.304 123.84C328.024 123.76 327.771 123.66 327.544 123.54C327.344 123.7 327.164 123.893 327.004 124.12C326.844 124.333 326.764 124.6 326.764 124.92C326.764 125.267 326.891 125.567 327.144 125.82C327.411 126.06 327.897 126.18 328.604 126.18H330.664C331.744 126.18 332.537 126.36 333.044 126.72C333.564 127.067 333.824 127.62 333.824 128.38C333.824 128.927 333.637 129.447 333.264 129.94C332.891 130.433 332.364 130.833 331.684 131.14C331.004 131.46 330.204 131.62 329.284 131.62ZM329.144 123.24C329.584 123.24 329.991 123.127 330.364 122.9C330.737 122.673 331.037 122.36 331.264 121.96C331.504 121.547 331.624 121.073 331.624 120.54C331.624 119.713 331.377 119.067 330.884 118.6C330.404 118.12 329.824 117.88 329.144 117.88C328.464 117.88 327.877 118.12 327.384 118.6C326.891 119.067 326.644 119.713 326.644 120.54C326.644 121.073 326.757 121.547 326.984 121.96C327.224 122.36 327.531 122.673 327.904 122.9C328.277 123.127 328.691 123.24 329.144 123.24ZM329.384 130.9C330.104 130.9 330.724 130.78 331.244 130.54C331.777 130.313 332.191 130.013 332.484 129.64C332.777 129.267 332.924 128.88 332.924 128.48C332.924 127.947 332.731 127.567 332.344 127.34C331.971 127.127 331.424 127.02 330.704 127.02H328.644C328.551 127.02 328.391 127.007 328.164 126.98C327.937 126.953 327.697 126.913 327.444 126.86C327.004 127.153 326.684 127.473 326.484 127.82C326.284 128.18 326.184 128.533 326.184 128.88C326.184 129.48 326.464 129.967 327.024 130.34C327.584 130.713 328.371 130.9 329.384 130.9ZM340.254 127.24C339.267 127.24 338.534 126.94 338.054 126.34C337.587 125.727 337.354 124.8 337.354 123.56V117.4H338.234V123.44C338.234 124.453 338.407 125.207 338.754 125.7C339.101 126.193 339.654 126.44 340.414 126.44C340.987 126.44 341.507 126.287 341.974 125.98C342.441 125.66 342.954 125.16 343.514 124.48V117.4H344.394V127H343.654L343.554 125.4H343.514C343.047 125.947 342.554 126.393 342.034 126.74C341.514 127.073 340.921 127.24 340.254 127.24ZM349.2 127.24C348.453 127.24 347.78 127.12 347.18 126.88C346.593 126.64 346.093 126.313 345.68 125.9L346.16 125.34C346.56 125.687 346.993 125.967 347.46 126.18C347.94 126.38 348.54 126.48 349.26 126.48C350.007 126.48 350.573 126.293 350.96 125.92C351.347 125.533 351.54 125.087 351.54 124.58C351.54 124.18 351.42 123.853 351.18 123.6C350.953 123.333 350.66 123.113 350.3 122.94C349.94 122.753 349.573 122.593 349.2 122.46C348.707 122.287 348.233 122.093 347.78 121.88C347.327 121.653 346.953 121.373 346.66 121.04C346.367 120.693 346.22 120.253 346.22 119.72C346.22 119.013 346.487 118.413 347.02 117.92C347.553 117.413 348.313 117.16 349.3 117.16C349.847 117.16 350.353 117.253 350.82 117.44C351.3 117.627 351.713 117.867 352.06 118.16L351.58 118.7C351.26 118.473 350.92 118.287 350.56 118.14C350.2 117.993 349.773 117.92 349.28 117.92C348.533 117.92 347.98 118.1 347.62 118.46C347.273 118.82 347.1 119.22 347.1 119.66C347.1 120.02 347.2 120.32 347.4 120.56C347.613 120.787 347.887 120.98 348.22 121.14C348.553 121.3 348.913 121.453 349.3 121.6C349.807 121.8 350.3 122.007 350.78 122.22C351.273 122.433 351.673 122.72 351.98 123.08C352.287 123.427 352.44 123.913 352.44 124.54C352.44 125.02 352.313 125.467 352.06 125.88C351.82 126.28 351.453 126.607 350.96 126.86C350.48 127.113 349.893 127.24 349.2 127.24ZM353.785 127V117.4H354.665V127H353.785ZM354.205 115.08C353.992 115.08 353.812 115.007 353.665 114.86C353.519 114.7 353.445 114.5 353.445 114.26C353.445 114.02 353.519 113.833 353.665 113.7C353.812 113.553 353.992 113.48 354.205 113.48C354.432 113.48 354.612 113.553 354.745 113.7C354.892 113.833 354.965 114.02 354.965 114.26C354.965 114.5 354.892 114.7 354.745 114.86C354.612 115.007 354.432 115.08 354.205 115.08ZM357.156 127V117.4H357.916L357.996 118.88H358.056C358.549 118.387 359.056 117.98 359.576 117.66C360.109 117.327 360.702 117.16 361.356 117.16C362.356 117.16 363.089 117.467 363.556 118.08C364.022 118.68 364.256 119.6 364.256 120.84V127H363.376V120.96C363.376 119.933 363.202 119.18 362.856 118.7C362.522 118.207 361.962 117.96 361.176 117.96C360.602 117.96 360.082 118.113 359.616 118.42C359.162 118.713 358.636 119.16 358.036 119.76V127H357.156ZM369.74 131.62C368.927 131.62 368.227 131.507 367.64 131.28C367.053 131.067 366.6 130.76 366.28 130.36C365.96 129.973 365.8 129.507 365.8 128.96C365.8 128.533 365.927 128.12 366.18 127.72C366.433 127.32 366.78 126.96 367.22 126.64V126.56C366.98 126.413 366.78 126.213 366.62 125.96C366.46 125.707 366.38 125.393 366.38 125.02C366.38 124.593 366.5 124.233 366.74 123.94C366.98 123.633 367.207 123.407 367.42 123.26V123.18C367.127 122.913 366.853 122.553 366.6 122.1C366.347 121.633 366.22 121.113 366.22 120.54C366.22 119.887 366.367 119.307 366.66 118.8C366.967 118.28 367.373 117.88 367.88 117.6C368.4 117.307 368.973 117.16 369.6 117.16C369.867 117.16 370.107 117.187 370.32 117.24C370.547 117.28 370.727 117.333 370.86 117.4H374.12V118.14H371.88V118.22C372.173 118.46 372.42 118.773 372.62 119.16C372.833 119.547 372.94 120.013 372.94 120.56C372.94 121.213 372.787 121.793 372.48 122.3C372.187 122.807 371.787 123.207 371.28 123.5C370.787 123.793 370.227 123.94 369.6 123.94C369.32 123.94 369.04 123.907 368.76 123.84C368.48 123.76 368.227 123.66 368 123.54C367.8 123.7 367.62 123.893 367.46 124.12C367.3 124.333 367.22 124.6 367.22 124.92C367.22 125.267 367.347 125.567 367.6 125.82C367.867 126.06 368.353 126.18 369.06 126.18H371.12C372.2 126.18 372.993 126.36 373.5 126.72C374.02 127.067 374.28 127.62 374.28 128.38C374.28 128.927 374.093 129.447 373.72 129.94C373.347 130.433 372.82 130.833 372.14 131.14C371.46 131.46 370.66 131.62 369.74 131.62ZM369.6 123.24C370.04 123.24 370.447 123.127 370.82 122.9C371.193 122.673 371.493 122.36 371.72 121.96C371.96 121.547 372.08 121.073 372.08 120.54C372.08 119.713 371.833 119.067 371.34 118.6C370.86 118.12 370.28 117.88 369.6 117.88C368.92 117.88 368.333 118.12 367.84 118.6C367.347 119.067 367.1 119.713 367.1 120.54C367.1 121.073 367.213 121.547 367.44 121.96C367.68 122.36 367.987 122.673 368.36 122.9C368.733 123.127 369.147 123.24 369.6 123.24ZM369.84 130.9C370.56 130.9 371.18 130.78 371.7 130.54C372.233 130.313 372.647 130.013 372.94 129.64C373.233 129.267 373.38 128.88 373.38 128.48C373.38 127.947 373.187 127.567 372.8 127.34C372.427 127.127 371.88 127.02 371.16 127.02H369.1C369.007 127.02 368.847 127.007 368.62 126.98C368.393 126.953 368.153 126.913 367.9 126.86C367.46 127.153 367.14 127.473 366.94 127.82C366.74 128.18 366.64 128.533 366.64 128.88C366.64 129.48 366.92 129.967 367.48 130.34C368.04 130.713 368.827 130.9 369.84 130.9ZM382.73 127.24C381.65 127.24 380.69 126.96 379.85 126.4C379.024 125.84 378.377 125.047 377.91 124.02C377.444 122.993 377.21 121.78 377.21 120.38C377.21 119.34 377.344 118.4 377.61 117.56C377.877 116.72 378.257 116.007 378.75 115.42C379.257 114.82 379.85 114.367 380.53 114.06C381.224 113.74 381.99 113.58 382.83 113.58C383.59 113.58 384.264 113.733 384.85 114.04C385.45 114.347 385.924 114.72 386.27 115.16L385.73 115.72C385.37 115.307 384.944 114.987 384.45 114.76C383.97 114.533 383.437 114.42 382.85 114.42C381.89 114.42 381.057 114.667 380.35 115.16C379.657 115.64 379.117 116.327 378.73 117.22C378.357 118.1 378.17 119.153 378.17 120.38C378.17 121.593 378.357 122.653 378.73 123.56C379.104 124.467 379.637 125.167 380.33 125.66C381.024 126.153 381.844 126.4 382.79 126.4C383.47 126.4 384.077 126.273 384.61 126.02C385.144 125.767 385.65 125.373 386.13 124.84L386.63 125.36C386.137 125.933 385.577 126.393 384.95 126.74C384.337 127.073 383.597 127.24 382.73 127.24ZM391.539 127.24C390.779 127.24 390.066 127.047 389.399 126.66C388.746 126.26 388.219 125.687 387.819 124.94C387.433 124.18 387.239 123.273 387.239 122.22C387.239 121.153 387.433 120.24 387.819 119.48C388.219 118.72 388.746 118.147 389.399 117.76C390.066 117.36 390.779 117.16 391.539 117.16C392.313 117.16 393.026 117.36 393.679 117.76C394.333 118.147 394.859 118.72 395.259 119.48C395.659 120.24 395.859 121.153 395.859 122.22C395.859 123.273 395.659 124.18 395.259 124.94C394.859 125.687 394.333 126.26 393.679 126.66C393.026 127.047 392.313 127.24 391.539 127.24ZM391.539 126.46C392.193 126.46 392.773 126.287 393.279 125.94C393.799 125.58 394.206 125.08 394.499 124.44C394.793 123.8 394.939 123.06 394.939 122.22C394.939 121.38 394.793 120.64 394.499 120C394.206 119.347 393.799 118.84 393.279 118.48C392.773 118.12 392.193 117.94 391.539 117.94C390.899 117.94 390.326 118.12 389.819 118.48C389.313 118.84 388.906 119.347 388.599 120C388.306 120.64 388.159 121.38 388.159 122.22C388.159 123.06 388.306 123.8 388.599 124.44C388.906 125.08 389.313 125.58 389.819 125.94C390.326 126.287 390.899 126.46 391.539 126.46ZM397.542 127V117.4H398.302L398.382 118.88H398.442C398.936 118.387 399.442 117.98 399.962 117.66C400.496 117.327 401.089 117.16 401.742 117.16C402.742 117.16 403.476 117.467 403.942 118.08C404.409 118.68 404.642 119.6 404.642 120.84V127H403.762V120.96C403.762 119.933 403.589 119.18 403.242 118.7C402.909 118.207 402.349 117.96 401.562 117.96C400.989 117.96 400.469 118.113 400.002 118.42C399.549 118.713 399.022 119.16 398.422 119.76V127H397.542ZM408.987 127L405.387 117.4H406.347L408.507 123.42C408.654 123.873 408.814 124.34 408.987 124.82C409.16 125.287 409.32 125.74 409.467 126.18H409.547C409.707 125.74 409.867 125.287 410.027 124.82C410.2 124.34 410.367 123.873 410.527 123.42L412.687 117.4H413.587L410.027 127H408.987ZM417.939 127.24C417.179 127.24 416.466 127.047 415.799 126.66C415.146 126.26 414.619 125.687 414.219 124.94C413.833 124.18 413.639 123.273 413.639 122.22C413.639 121.153 413.833 120.24 414.219 119.48C414.619 118.72 415.146 118.147 415.799 117.76C416.466 117.36 417.179 117.16 417.939 117.16C418.713 117.16 419.426 117.36 420.079 117.76C420.733 118.147 421.259 118.72 421.659 119.48C422.059 120.24 422.259 121.153 422.259 122.22C422.259 123.273 422.059 124.18 421.659 124.94C421.259 125.687 420.733 126.26 420.079 126.66C419.426 127.047 418.713 127.24 417.939 127.24ZM417.939 126.46C418.593 126.46 419.173 126.287 419.679 125.94C420.199 125.58 420.606 125.08 420.899 124.44C421.193 123.8 421.339 123.06 421.339 122.22C421.339 121.38 421.193 120.64 420.899 120C420.606 119.347 420.199 118.84 419.679 118.48C419.173 118.12 418.593 117.94 417.939 117.94C417.299 117.94 416.726 118.12 416.219 118.48C415.713 118.84 415.306 119.347 414.999 120C414.706 120.64 414.559 121.38 414.559 122.22C414.559 123.06 414.706 123.8 414.999 124.44C415.306 125.08 415.713 125.58 416.219 125.94C416.726 126.287 417.299 126.46 417.939 126.46ZM425.122 127.16C424.856 127.16 424.636 127.107 424.462 127C424.289 126.893 424.156 126.727 424.062 126.5C423.982 126.273 423.942 125.987 423.942 125.64V112.62H424.822V125.76C424.822 125.987 424.862 126.147 424.942 126.24C425.036 126.333 425.149 126.38 425.282 126.38C425.322 126.38 425.362 126.38 425.402 126.38C425.456 126.367 425.522 126.353 425.602 126.34L425.762 127.04C425.669 127.08 425.569 127.107 425.462 127.12C425.369 127.147 425.256 127.16 425.122 127.16ZM430.248 127.24C429.262 127.24 428.528 126.94 428.048 126.34C427.582 125.727 427.348 124.8 427.348 123.56V117.4H428.228V123.44C428.228 124.453 428.402 125.207 428.748 125.7C429.095 126.193 429.648 126.44 430.408 126.44C430.982 126.44 431.502 126.287 431.968 125.98C432.435 125.66 432.948 125.16 433.508 124.48V117.4H434.388V127H433.648L433.548 125.4H433.508C433.042 125.947 432.548 126.393 432.028 126.74C431.508 127.073 430.915 127.24 430.248 127.24ZM439.494 127.16C438.561 127.16 437.928 126.893 437.594 126.36C437.261 125.827 437.094 125.133 437.094 124.28V118.16H435.594V117.48L437.114 117.4L437.234 114.22H437.994V117.4H440.774V118.16H437.994V124.34C437.994 124.953 438.101 125.453 438.314 125.84C438.528 126.213 438.961 126.4 439.614 126.4C439.801 126.4 439.988 126.38 440.174 126.34C440.374 126.287 440.588 126.207 440.814 126.1L441.094 126.72C440.841 126.853 440.574 126.96 440.294 127.04C440.014 127.12 439.748 127.16 439.494 127.16ZM441.905 127V117.4H442.785V127H441.905ZM442.325 115.08C442.112 115.08 441.932 115.007 441.785 114.86C441.638 114.7 441.565 114.5 441.565 114.26C441.565 114.02 441.638 113.833 441.785 113.7C441.932 113.553 442.112 113.48 442.325 113.48C442.552 113.48 442.732 113.553 442.865 113.7C443.012 113.833 443.085 114.02 443.085 114.26C443.085 114.5 443.012 114.7 442.865 114.86C442.732 115.007 442.552 115.08 442.325 115.08ZM448.775 127.24C448.015 127.24 447.302 127.047 446.635 126.66C445.982 126.26 445.455 125.687 445.055 124.94C444.669 124.18 444.475 123.273 444.475 122.22C444.475 121.153 444.669 120.24 445.055 119.48C445.455 118.72 445.982 118.147 446.635 117.76C447.302 117.36 448.015 117.16 448.775 117.16C449.549 117.16 450.262 117.36 450.915 117.76C451.569 118.147 452.095 118.72 452.495 119.48C452.895 120.24 453.095 121.153 453.095 122.22C453.095 123.273 452.895 124.18 452.495 124.94C452.095 125.687 451.569 126.26 450.915 126.66C450.262 127.047 449.549 127.24 448.775 127.24ZM448.775 126.46C449.429 126.46 450.009 126.287 450.515 125.94C451.035 125.58 451.442 125.08 451.735 124.44C452.029 123.8 452.175 123.06 452.175 122.22C452.175 121.38 452.029 120.64 451.735 120C451.442 119.347 451.035 118.84 450.515 118.48C450.009 118.12 449.429 117.94 448.775 117.94C448.135 117.94 447.562 118.12 447.055 118.48C446.549 118.84 446.142 119.347 445.835 120C445.542 120.64 445.395 121.38 445.395 122.22C445.395 123.06 445.542 123.8 445.835 124.44C446.142 125.08 446.549 125.58 447.055 125.94C447.562 126.287 448.135 126.46 448.775 126.46ZM454.778 127V117.4H455.538L455.618 118.88H455.678C456.172 118.387 456.678 117.98 457.198 117.66C457.732 117.327 458.325 117.16 458.978 117.16C459.978 117.16 460.712 117.467 461.178 118.08C461.645 118.68 461.878 119.6 461.878 120.84V127H460.998V120.96C460.998 119.933 460.825 119.18 460.478 118.7C460.145 118.207 459.585 117.96 458.798 117.96C458.225 117.96 457.705 118.113 457.238 118.42C456.785 118.713 456.258 119.16 455.658 119.76V127H454.778ZM466.323 127.24C465.816 127.24 465.349 127.147 464.923 126.96C464.509 126.773 464.176 126.487 463.923 126.1C463.669 125.7 463.543 125.207 463.543 124.62C463.543 123.54 464.043 122.727 465.043 122.18C466.043 121.62 467.609 121.22 469.743 120.98C469.743 120.487 469.683 120.007 469.563 119.54C469.456 119.073 469.236 118.693 468.903 118.4C468.583 118.093 468.103 117.94 467.463 117.94C466.823 117.94 466.236 118.067 465.703 118.32C465.169 118.56 464.736 118.793 464.403 119.02L464.003 118.4C464.229 118.227 464.523 118.047 464.883 117.86C465.243 117.66 465.649 117.493 466.103 117.36C466.569 117.227 467.063 117.16 467.583 117.16C468.329 117.16 468.923 117.327 469.363 117.66C469.816 117.993 470.136 118.44 470.323 119C470.523 119.56 470.623 120.18 470.623 120.86V127H469.863L469.783 125.76H469.723C469.243 126.147 468.709 126.493 468.123 126.8C467.549 127.093 466.949 127.24 466.323 127.24ZM466.483 126.46C467.029 126.46 467.556 126.333 468.063 126.08C468.583 125.813 469.143 125.427 469.743 124.92V121.68C468.423 121.827 467.376 122.033 466.603 122.3C465.829 122.553 465.276 122.867 464.943 123.24C464.609 123.613 464.443 124.053 464.443 124.56C464.443 125.24 464.643 125.727 465.043 126.02C465.456 126.313 465.936 126.46 466.483 126.46ZM474.027 127.16C473.76 127.16 473.54 127.107 473.367 127C473.194 126.893 473.06 126.727 472.967 126.5C472.887 126.273 472.847 125.987 472.847 125.64V112.62H473.727V125.76C473.727 125.987 473.767 126.147 473.847 126.24C473.94 126.333 474.054 126.38 474.187 126.38C474.227 126.38 474.267 126.38 474.307 126.38C474.36 126.367 474.427 126.353 474.507 126.34L474.667 127.04C474.574 127.08 474.474 127.107 474.367 127.12C474.274 127.147 474.16 127.16 474.027 127.16ZM479.297 127V113.82H480.297L485.817 123.08C486.07 123.52 486.324 123.967 486.577 124.42C486.83 124.86 487.07 125.3 487.297 125.74H487.377C487.364 125.1 487.337 124.46 487.297 123.82C487.27 123.18 487.257 122.54 487.257 121.9V113.82H488.137V127H487.137L481.617 117.74C481.364 117.3 481.11 116.853 480.857 116.4C480.604 115.947 480.364 115.507 480.137 115.08H480.057C480.084 115.693 480.11 116.307 480.137 116.92C480.164 117.533 480.177 118.167 480.177 118.82V127H479.297ZM494.352 127.24C493.525 127.24 492.779 127.04 492.112 126.64C491.445 126.24 490.912 125.667 490.512 124.92C490.112 124.16 489.912 123.26 489.912 122.22C489.912 121.167 490.112 120.267 490.512 119.52C490.912 118.76 491.425 118.18 492.052 117.78C492.692 117.367 493.372 117.16 494.092 117.16C494.852 117.16 495.505 117.333 496.052 117.68C496.612 118.027 497.039 118.533 497.332 119.2C497.625 119.853 497.772 120.653 497.772 121.6C497.772 121.707 497.765 121.827 497.752 121.96C497.752 122.08 497.739 122.207 497.712 122.34H490.452V121.58H496.932C496.932 120.353 496.679 119.44 496.172 118.84C495.665 118.227 494.979 117.92 494.112 117.92C493.579 117.92 493.059 118.073 492.552 118.38C492.045 118.687 491.625 119.16 491.292 119.8C490.972 120.427 490.812 121.22 490.812 122.18C490.812 123.06 490.972 123.827 491.292 124.48C491.612 125.12 492.045 125.613 492.592 125.96C493.139 126.293 493.752 126.46 494.432 126.46C494.952 126.46 495.425 126.393 495.852 126.26C496.292 126.113 496.679 125.92 497.012 125.68L497.372 126.3C496.999 126.553 496.579 126.773 496.112 126.96C495.645 127.147 495.059 127.24 494.352 127.24ZM501.94 127.24C500.953 127.24 500.22 126.94 499.74 126.34C499.273 125.727 499.04 124.8 499.04 123.56V117.4H499.92V123.44C499.92 124.453 500.093 125.207 500.44 125.7C500.787 126.193 501.34 126.44 502.1 126.44C502.673 126.44 503.193 126.287 503.66 125.98C504.127 125.66 504.64 125.16 505.2 124.48V117.4H506.08V127H505.34L505.24 125.4H505.2C504.733 125.947 504.24 126.393 503.72 126.74C503.2 127.073 502.607 127.24 501.94 127.24ZM508.566 127V117.4H509.326L509.406 119.18H509.466C509.772 118.593 510.152 118.113 510.606 117.74C511.072 117.353 511.599 117.16 512.186 117.16C512.359 117.16 512.519 117.173 512.666 117.2C512.826 117.227 512.986 117.28 513.146 117.36L512.906 118.12C512.772 118.08 512.646 118.053 512.526 118.04C512.419 118.013 512.266 118 512.066 118C511.639 118 511.186 118.187 510.706 118.56C510.239 118.92 509.819 119.553 509.446 120.46V127H508.566ZM515.403 127.24C514.897 127.24 514.43 127.147 514.003 126.96C513.59 126.773 513.257 126.487 513.003 126.1C512.75 125.7 512.623 125.207 512.623 124.62C512.623 123.54 513.123 122.727 514.123 122.18C515.123 121.62 516.69 121.22 518.823 120.98C518.823 120.487 518.763 120.007 518.643 119.54C518.537 119.073 518.317 118.693 517.983 118.4C517.663 118.093 517.183 117.94 516.543 117.94C515.903 117.94 515.317 118.067 514.783 118.32C514.25 118.56 513.817 118.793 513.483 119.02L513.083 118.4C513.31 118.227 513.603 118.047 513.963 117.86C514.323 117.66 514.73 117.493 515.183 117.36C515.65 117.227 516.143 117.16 516.663 117.16C517.41 117.16 518.003 117.327 518.443 117.66C518.897 117.993 519.217 118.44 519.403 119C519.603 119.56 519.703 120.18 519.703 120.86V127H518.943L518.863 125.76H518.803C518.323 126.147 517.79 126.493 517.203 126.8C516.63 127.093 516.03 127.24 515.403 127.24ZM515.563 126.46C516.11 126.46 516.637 126.333 517.143 126.08C517.663 125.813 518.223 125.427 518.823 124.92V121.68C517.503 121.827 516.457 122.033 515.683 122.3C514.91 122.553 514.357 122.867 514.023 123.24C513.69 123.613 513.523 124.053 513.523 124.56C513.523 125.24 513.723 125.727 514.123 126.02C514.537 126.313 515.017 126.46 515.563 126.46ZM523.107 127.16C522.841 127.16 522.621 127.107 522.447 127C522.274 126.893 522.141 126.727 522.047 126.5C521.967 126.273 521.927 125.987 521.927 125.64V112.62H522.807V125.76C522.807 125.987 522.847 126.147 522.927 126.24C523.021 126.333 523.134 126.38 523.267 126.38C523.307 126.38 523.347 126.38 523.387 126.38C523.441 126.367 523.507 126.353 523.587 126.34L523.747 127.04C523.654 127.08 523.554 127.107 523.447 127.12C523.354 127.147 523.241 127.16 523.107 127.16ZM528.378 127V113.82H529.377L534.898 123.08C535.151 123.52 535.404 123.967 535.658 124.42C535.911 124.86 536.151 125.3 536.378 125.74H536.458C536.444 125.1 536.418 124.46 536.378 123.82C536.351 123.18 536.338 122.54 536.338 121.9V113.82H537.218V127H536.218L530.698 117.74C530.444 117.3 530.191 116.853 529.938 116.4C529.684 115.947 529.444 115.507 529.218 115.08H529.138C529.164 115.693 529.191 116.307 529.218 116.92C529.244 117.533 529.258 118.167 529.258 118.82V127H528.378ZM543.432 127.24C542.606 127.24 541.859 127.04 541.192 126.64C540.526 126.24 539.992 125.667 539.592 124.92C539.192 124.16 538.992 123.26 538.992 122.22C538.992 121.167 539.192 120.267 539.592 119.52C539.992 118.76 540.506 118.18 541.132 117.78C541.772 117.367 542.452 117.16 543.172 117.16C543.932 117.16 544.586 117.333 545.132 117.68C545.692 118.027 546.119 118.533 546.412 119.2C546.706 119.853 546.852 120.653 546.852 121.6C546.852 121.707 546.846 121.827 546.832 121.96C546.832 122.08 546.819 122.207 546.792 122.34H539.532V121.58H546.012C546.012 120.353 545.759 119.44 545.252 118.84C544.746 118.227 544.059 117.92 543.192 117.92C542.659 117.92 542.139 118.073 541.632 118.38C541.126 118.687 540.706 119.16 540.372 119.8C540.052 120.427 539.892 121.22 539.892 122.18C539.892 123.06 540.052 123.827 540.372 124.48C540.692 125.12 541.126 125.613 541.672 125.96C542.219 126.293 542.832 126.46 543.512 126.46C544.032 126.46 544.506 126.393 544.932 126.26C545.372 126.113 545.759 125.92 546.092 125.68L546.452 126.3C546.079 126.553 545.659 126.773 545.192 126.96C544.726 127.147 544.139 127.24 543.432 127.24ZM550.685 127.16C549.752 127.16 549.118 126.893 548.785 126.36C548.452 125.827 548.285 125.133 548.285 124.28V118.16H546.785V117.48L548.305 117.4L548.425 114.22H549.185V117.4H551.965V118.16H549.185V124.34C549.185 124.953 549.292 125.453 549.505 125.84C549.718 126.213 550.152 126.4 550.805 126.4C550.992 126.4 551.178 126.38 551.365 126.34C551.565 126.287 551.778 126.207 552.005 126.1L552.285 126.72C552.032 126.853 551.765 126.96 551.485 127.04C551.205 127.12 550.938 127.16 550.685 127.16ZM554.575 127L551.735 117.4H552.695L554.415 123.62C554.535 124.06 554.649 124.487 554.755 124.9C554.875 125.313 554.982 125.747 555.075 126.2H555.155C555.262 125.747 555.375 125.313 555.495 124.9C555.615 124.487 555.729 124.06 555.835 123.62L557.575 117.4H558.675L560.415 123.62C560.535 124.06 560.649 124.487 560.755 124.9C560.875 125.313 560.995 125.747 561.115 126.2H561.195C561.302 125.747 561.409 125.313 561.515 124.9C561.635 124.487 561.755 124.06 561.875 123.62L563.575 117.4H564.475L561.715 127H560.535L558.855 121.04C558.735 120.573 558.615 120.12 558.495 119.68C558.389 119.227 558.269 118.76 558.135 118.28H558.055C557.949 118.76 557.835 119.233 557.715 119.7C557.595 120.153 557.462 120.613 557.315 121.08L555.675 127H554.575ZM569.067 127.24C568.307 127.24 567.594 127.047 566.927 126.66C566.274 126.26 565.747 125.687 565.347 124.94C564.961 124.18 564.767 123.273 564.767 122.22C564.767 121.153 564.961 120.24 565.347 119.48C565.747 118.72 566.274 118.147 566.927 117.76C567.594 117.36 568.307 117.16 569.067 117.16C569.841 117.16 570.554 117.36 571.207 117.76C571.861 118.147 572.387 118.72 572.787 119.48C573.187 120.24 573.387 121.153 573.387 122.22C573.387 123.273 573.187 124.18 572.787 124.94C572.387 125.687 571.861 126.26 571.207 126.66C570.554 127.047 569.841 127.24 569.067 127.24ZM569.067 126.46C569.721 126.46 570.301 126.287 570.807 125.94C571.327 125.58 571.734 125.08 572.027 124.44C572.321 123.8 572.467 123.06 572.467 122.22C572.467 121.38 572.321 120.64 572.027 120C571.734 119.347 571.327 118.84 570.807 118.48C570.301 118.12 569.721 117.94 569.067 117.94C568.427 117.94 567.854 118.12 567.347 118.48C566.841 118.84 566.434 119.347 566.127 120C565.834 120.64 565.687 121.38 565.687 122.22C565.687 123.06 565.834 123.8 566.127 124.44C566.434 125.08 566.841 125.58 567.347 125.94C567.854 126.287 568.427 126.46 569.067 126.46ZM575.07 127V117.4H575.83L575.91 119.18H575.97C576.277 118.593 576.657 118.113 577.11 117.74C577.577 117.353 578.104 117.16 578.69 117.16C578.864 117.16 579.024 117.173 579.17 117.2C579.33 117.227 579.49 117.28 579.65 117.36L579.41 118.12C579.277 118.08 579.15 118.053 579.03 118.04C578.924 118.013 578.77 118 578.57 118C578.144 118 577.69 118.187 577.21 118.56C576.744 118.92 576.324 119.553 575.95 120.46V127H575.07ZM580.218 127V112.62H581.098V123.22H581.138L585.878 117.4H586.898L583.778 121.2L587.418 127H586.438L583.258 121.86L581.098 124.38V127H580.218Z" fill="black"/>
</svg>
