{  "asset": {    "version": "2.0",    "generator": "THREE.GLTFExporter r167"  },  "scenes": [    {      "name": "AuxScene",      "nodes": [        1      ]    }  ],  "scene": 0,  "nodes": [    {      "mesh": 0    },    {      "children": [        0      ]    }  ],  "bufferViews": [    {      "buffer": 0,      "byteOffset": 0,      "byteLength": 290736,      "target": 34962,      "byteStride": 12    },    {      "buffer": 0,      "byteOffset": 290736,      "byteLength": 290736,      "target": 34962,      "byteStride": 12    }  ],  "buffers": [    {      "byteLength": 581472,      "uri": "data:application/octet-stream;base64,"    }  ],  "accessors": [    {      "bufferView": 0,      "componentType": 5126,      "count": 24228,      "max": [        57.233577728271484,        8.398886680603027,        2.143342971801758      ],      "min": [        -57.233577728271484,        -8.398887634277344,        -2.143343210220337      ],      "type": "VEC3"    },    {      "bufferView": 1,      "componentType": 5126,      "count": 24228,      "max": [        1,        1,        1      ],      "min": [        -1,        -1,        -1      ],      "type": "VEC3"    }  ],  "materials": [    {      "pbrMetallicRoughness": {        "baseColorFactor": [          0.6038273388475408,          0.6038273388475408,          0.6038273388475408,          1        ],        "metallicFactor": 0.5,        "roughnessFactor": 0.5      },      "doubleSided": true,      "name": "mat0"    }  ],  "meshes": [    {      "primitives": [        {          "mode": 4,          "attributes": {            "POSITION": 0,            "NORMAL": 1          },          "material": 0        }      ]    }  ]}