{  "asset": {    "version": "2.0",    "generator": "THREE.GLTFExporter r167"  },  "scenes": [    {      "name": "AuxScene",      "nodes": [        1      ]    }  ],  "scene": 0,  "nodes": [    {      "mesh": 0    },    {      "children": [        0      ]    }  ],  "bufferViews": [    {      "buffer": 0,      "byteOffset": 0,      "byteLength": 75888,      "target": 34962,      "byteStride": 12    },    {      "buffer": 0,      "byteOffset": 75888,      "byteLength": 75888,      "target": 34962,      "byteStride": 12    }  ],  "buffers": [    {      "byteLength": 151776,      "uri": "data:application/octet-stream;base64,"    }  ],  "accessors": [    {      "bufferView": 0,      "componentType": 5126,      "count": 6324,      "max": [        59.94302749633789,        59.98789596557617,        4.61277961730957      ],      "min": [        -59.943031311035156,        -59.98789596557617,        -4.612779140472412      ],      "type": "VEC3"    },    {      "bufferView": 1,      "componentType": 5126,      "count": 6324,      "max": [        1,        1,        1      ],      "min": [        -1,        -1,        -1      ],      "type": "VEC3"    }  ],  "materials": [    {      "pbrMetallicRoughness": {        "baseColorFactor": [          0.6038273388475408,          0.6038273388475408,          0.6038273388475408,          1        ],        "metallicFactor": 0.5,        "roughnessFactor": 0.5      },      "doubleSided": true,      "name": "mat0"    }  ],  "meshes": [    {      "primitives": [        {          "mode": 4,          "attributes": {            "POSITION": 0,            "NORMAL": 1          },          "material": 0        }      ]    }  ]}